<?xml version="1.0" encoding="UTF-8" standalone="no"?>
<svg
   width="300pt"
   height="300pt"
   viewBox="0 0 300 299.99999"
   version="1.2"
   id="svg2068"
   xmlns="http://www.w3.org/2000/svg"
   xmlns:svg="http://www.w3.org/2000/svg"
   xmlns:rdf="http://www.w3.org/1999/02/22-rdf-syntax-ns#"
   xmlns:cc="http://creativecommons.org/ns#"
   xmlns:dc="http://purl.org/dc/elements/1.1/">
  <metadata
     id="metadata2072">
    <rdf:RDF>
      <cc:Work
         rdf:about="">
        <dc:format>image/svg+xml</dc:format>
        <dc:type
           rdf:resource="http://purl.org/dc/dcmitype/StillImage" />
        <dc:title />
      </cc:Work>
    </rdf:RDF>
  </metadata>
  <defs
     id="defs373" />
  <g
     id="surface42590"
     transform="translate(-225.00745,-170.85532)">
    <path
       style="fill:#237f52;fill-opacity:1;fill-rule:evenodd;stroke:none;stroke-width:4.42381"
       d="m 233.95527,461.90749 h 282.1043 V 179.82044 h -282.1043 z m 0,0"
       id="path657" />
    <path
       id="path3276"
       style="color:#000000;display:inline;fill:#ffffff;fill-opacity:1"
       d="m 334.36386,210.15034 c -38.54699,0 -69.92871,31.38465 -69.92871,69.93164 0,15.20888 4.90045,29.29042 13.1836,40.78125 -8.28357,11.49128 -13.1836,25.57488 -13.1836,40.78418 0,38.54698 31.38172,69.93018 69.92871,69.93018 15.14733,0 29.17802,-4.86165 40.64356,-13.08399 11.46544,8.2221 25.495,13.08399 40.64209,13.08399 38.54699,0 69.93017,-31.3832 69.93017,-69.93018 0,-15.2093 -4.90122,-29.2929 -13.18506,-40.78418 8.28342,-11.49083 13.18506,-25.57237 13.18506,-40.78125 0,-38.54699 -31.38318,-69.93163 -69.93017,-69.93164 -15.14708,0 -29.17664,4.86151 -40.64209,13.08398 -11.46553,-8.22271 -25.49623,-13.08398 -40.64356,-13.08398 z m 0,12.60352 c 8.09916,0 15.77907,1.69969 22.75196,4.71386 a 95.265594,95.265594 0 0 0 -75.44532,75.17432 c -2.96229,-6.92225 -4.63476,-14.53488 -4.63476,-22.56006 0,-31.73603 25.59209,-57.32812 57.32812,-57.32812 z m 81.28565,0 c 31.736,0 57.32813,25.59209 57.32813,57.32812 0,7.9306 -1.63671,15.45699 -4.53369,22.31397 a 95.265594,95.265594 0 0 0 -75.29736,-75.03223 c 6.90688,-2.94681 14.50002,-4.60986 22.50292,-4.60986 z m -40.64209,47.91064 a 50.199833,50.199833 0 0 1 50.2002,50.19873 50.199833,50.199833 0 0 1 -50.2002,50.2002 50.199833,50.199833 0 0 1 -50.20019,-50.2002 50.199833,50.199833 0 0 1 50.20019,-50.19873 z m -93.33692,68.42432 a 95.265594,95.265594 0 0 0 75.44678,75.17285 c -6.97334,3.01466 -14.65358,4.71387 -22.75342,4.71387 -31.73603,0 -57.32812,-25.59212 -57.32812,-57.32813 0,-8.02519 1.67247,-15.63635 4.63476,-22.55859 z m 186.67237,0.003 c 2.96191,6.92142 4.63477,14.53154 4.63477,22.55566 0,31.73601 -25.59213,57.32813 -57.32813,57.32813 -8.09985,0 -15.78154,-1.69921 -22.75488,-4.71387 a 95.265594,95.265594 0 0 0 75.44824,-75.16992 z" />
  </g>
</svg>
