<?xml version="1.0" encoding="UTF-8" standalone="no"?>
<svg
   height="525"
   width="600"
   version="1.1"
   id="svg16"
   xml:space="preserve"
   xmlns="http://www.w3.org/2000/svg"
   xmlns:svg="http://www.w3.org/2000/svg"
   xmlns:rdf="http://www.w3.org/1999/02/22-rdf-syntax-ns#"
   xmlns:cc="http://creativecommons.org/ns#"
   xmlns:dc="http://purl.org/dc/elements/1.1/"><defs
     id="defs20" /><metadata
     id="metadata2"><rdf:RDF><cc:Work
         rdf:about=""><dc:format>image/svg+xml</dc:format><dc:type
           rdf:resource="http://purl.org/dc/dcmitype/StillImage" /></cc:Work></rdf:RDF></metadata><path
     d="M 597.6,499.6 313.8,8 C 310.9,3 305.6,0 299.9,0 294.2,0 288.9,3.1 286,8 L 2.2,499.6 c -2.9,5 -2.9,11.1 0,16 2.9,5 8.2,8 13.9,8 h 567.6 c 5.7,0 11,-3.1 13.9,-8 2.9,-5 2.9,-11.1 0,-16 z"
     id="path4" /><polygon
     points="299.88,48.2 555.88,491.5 43.875,491.5 "
     fill="#f6bd16"
     transform="matrix(1,0,0,0.99591458,0.125,2.0332437)"
     id="polygon6"
     style="fill:#f9a800;fill-opacity:1" /><path
     style="fill:#000000;fill-opacity:1;stroke:#000000;stroke-width:1.15184px;stroke-linecap:butt;stroke-linejoin:miter;stroke-opacity:1"
     d="m 245.64229,413.01945 c 0,0 2.5644,11.50943 9.202,12.84457 13.7351,2.76279 31.4581,-12.63949 50.9101,-12.22154 18.2783,0.39274 31.0828,12.786 48.1733,13.08376 19.1617,0.33383 30.0464,-13.19263 54.8758,-12.77224 16.3349,0.27657 34.3384,15.58182 49.4726,11.0022 8.4303,-2.55105 7.4978,-11.781 7.4978,-11.781 0,0 -9.7044,1.41654 -19.4789,0.15576 -15.0342,-1.93917 -23.1756,-10.15843 -38.434,-10.12433 -24.2045,0.0541 -32.8957,11.61055 -50.582,11.68192 -19.6986,0.0795 -31.1666,-12.05912 -51.0011,-11.91555 -15.233,0.11024 -28.0538,8.02905 -42.4134,10.66948 -5.9027,1.08538 -18.2222,-0.62303 -18.2222,-0.62303 z"
     id="path1804" /><path
     style="fill:#000000;fill-opacity:1;stroke:#000000;stroke-width:1px;stroke-linecap:butt;stroke-linejoin:miter;stroke-opacity:1"
     d="m 156.29298,381.87568 -35.03853,60.76303 h 111.32494 v -61.20656 h -76.28641 z"
     id="path2833" /><path
     style="fill:#000000;fill-opacity:1;stroke:#000000;stroke-width:1px;stroke-linecap:butt;stroke-linejoin:miter;stroke-opacity:1"
     d="m 374.04199,366.61263 h 76.0529 l 11.4471,19.60126 h -87.3432 z"
     id="path2835" /><path
     style="fill:#000000;fill-opacity:1;stroke:#000000;stroke-width:1.15184px;stroke-linecap:butt;stroke-linejoin:miter;stroke-opacity:1"
     d="m 244.92113,436.06244 c 0,0 2.5644,11.50943 9.202,12.84457 13.7351,2.76279 31.4581,-12.63949 50.9101,-12.22154 18.2783,0.39274 31.0828,12.786 48.1733,13.08376 19.1617,0.33383 30.0464,-13.19263 54.8758,-12.77224 16.3349,0.27657 34.3384,15.58182 49.4726,11.0022 8.4303,-2.55105 7.4978,-11.781 7.4978,-11.781 0,0 -9.7044,1.41654 -19.4789,0.15576 -15.0342,-1.93917 -23.1756,-10.15843 -38.434,-10.12433 -24.2045,0.0541 -32.8957,11.61055 -50.582,11.68192 -19.6986,0.0795 -31.1666,-12.05912 -51.0011,-11.91555 -15.233,0.11024 -28.0538,8.02905 -42.4134,10.66948 -5.9027,1.08538 -18.2222,-0.62303 -18.2222,-0.62303 z"
     id="path1804-7" /><path
     id="rect9169-09"
     style="display:inline;opacity:1;fill:#000000;fill-opacity:1;stroke:none;stroke-width:15.6138"
     d="m 337.34935,205.4419 c -8.62492,5e-4 -15.61668,6.99227 -15.61718,15.61719 -5.8e-4,8.62569 6.9915,15.61864 15.61719,15.61914 8.62644,5.8e-4 15.61972,-6.99269 15.61914,-15.61914 -4.9e-4,-8.62569 -6.99345,-15.61777 -15.61915,-15.61719 z m -31.74218,25.20508 -38.43359,0.26953 c -3.90972,0.42746 -6.3026,2.17995 -8.30664,4.27539 l -26.25203,28.07025 c -2.53796,2.71361 -2.39719,6.9425 0.31642,9.48047 2.71361,2.53797 6.94054,2.39525 9.4785,-0.31836 l 26.25391,-28.07031 c 0.0105,-0.0113 0.0185,-0.0242 0.029,-0.0354 l 33.1875,-0.23047 -30.07788,46.5967 c -1.31971,2.17052 -1.47144,3.62612 -1.96115,6.5615 l -7.91601,44.67578 -43.42188,11.08985 c -4.10726,1.0491 -6.56863,5.19937 -5.51953,9.30664 1.0491,4.10727 5.19936,6.57058 9.30664,5.52148 l 46.43164,-11.85938 c 4.54351,-1.2983 6.71504,-4.42901 7.79102,-8.67968 l 6.82421,-38.50196 c 2.98956,1.34395 5.86664,3.22566 8.36328,5.06641 l 34.59375,32.98047 c 0.97394,1.05363 1.40609,1.43133 1.98084,2.8488 l 13.42541,42.35237 c 1.28092,4.04099 5.5645,6.26335 9.60547,4.98243 4.04098,-1.28092 6.26334,-5.56449 4.98242,-9.60547 L 342.34024,343.4214 c -1.37468,-3.48735 -3.39689,-5.65286 -5.48536,-7.65168 l -32.63086,-31.10547 28.41602,-44.01953 c 0.0564,0.10782 0.1071,0.21628 0.16992,0.32227 l 19.60742,33.05663 c 3.06077,4.07062 8.09916,5.15037 11.25391,3.07422 l 31.56835,-21.92382 c 3.05169,-2.11949 3.80114,-6.28231 1.68165,-9.33398 -2.11949,-3.05168 -6.2823,-3.80309 -9.33399,-1.6836 l -26.41015,18.34375 -16.83008,-28.375 c -4.03117,-3.85227 -8.78715,-8.1305 -11.44263,-9.9082 l -15.45191,-9.78345 c -3.75592,-3.50049 -8.07721,-3.73567 -11.84569,-3.78687 z" /></svg>
